# xmcd
# 
# Track frame offsets:
#     150
#     20992
#     38937
#     56090
#     75007
#     92137
#     109192
#     125902
#     145790
#     166065
#     184205
#     208320
# 
# Disc length: 3057
# 
# Revision: 12
# Processed by: cddbd v1.5.2PL0 Copyright (c) Steve Scherf et al.
# Submitted via: fre:ac v1.0.27
# 
DISCID=aa0bef0c
DTITLE=安室 奈美恵 - PLAY
DYEAR=2007
DGENRE=J-POP
TTITLE0=01-Hide ＆ Seek
TTITLE1=02-Full Moon
TTITLE2=03-CAN'T SLEEP, CAN'T EAT, I'M SICK
TTITLE3=04-It's all about you
TTITLE4=05-FUNKY TOWN
TTITLE5=06-Step With It
TTITLE6=07-Hello
TTITLE7=08-Should I Love Him？
TTITLE8=09-Top Secret
TTITLE9=10-Violet Sauce (Spicy)
TTITLE10=11-Baby Don't Cry
TTITLE11=12-Pink Key
EXTD=YEAR: 2007
EXTT0=
EXTT1=
EXTT2=
EXTT3=
EXTT4=
EXTT5=
EXTT6=
EXTT7=
EXTT8=
EXTT9=
EXTT10=
EXTT11=
PLAYORDER=
